<svg xmlns="http://www.w3.org/2000/svg" viewBox="0 0 32 32" width="72" height="72">
  <defs>
    <linearGradient id="hexGrad" x1="0%" y1="0%" x2="100%" y2="100%">
      <stop offset="0%" style="stop-color:#7c3aed"/>
      <stop offset="100%" style="stop-color:#5b21b6"/>
    </linearGradient>
    <filter id="shadow" x="-20%" y="-20%" width="140%" height="140%">
      <feDropShadow dx="0" dy="1" stdDeviation="2" flood-color="#000" flood-opacity="0.3"/>
    </filter>
  </defs>
  
  <polygon points="16,0 30,8 30,24 16,32 2,24 2,8" fill="url(#hexGrad)" filter="url(#shadow)"/>
  
  <g stroke="white" stroke-width="0.8" fill="none" opacity="0.95">
    <polygon points="16,4 26,10 26,22 16,28 6,22 6,10"/>
    <circle cx="16" cy="16" r="2" fill="white" opacity="0.9"/>
    
    <line x1="16" y1="4" x2="16" y2="14"/>
    <line x1="26" y1="10" x2="18" y2="14"/>
    <line x1="26" y1="22" x2="18" y2="18"/>
    <line x1="16" y1="28" x2="16" y2="18"/>
    <line x1="6" y1="22" x2="14" y2="18"/>
    <line x1="6" y1="10" x2="14" y2="14"/>
  </g>
</svg>
